<svg xmlns="http://www.w3.org/2000/svg" version="1.1" viewBox="0 0 24 24" id="svg1" sodipodi:docname="star-box-multiple.svg" inkscape:version="1.4.3 (0d15f75042, 2025-12-25)" xmlns:inkscape="http://www.inkscape.org/namespaces/inkscape" xmlns:sodipodi="http://sodipodi.sourceforge.net/DTD/sodipodi-0.dtd" xmlns:svg="http://www.w3.org/2000/svg" width="24" height="24"><metadata><rdf:RDF xmlns:rdf="http://www.w3.org/1999/02/22-rdf-syntax-ns#" xmlns:dc="http://purl.org/dc/elements/1.1/"><rdf:Description><dc:creator>RealFaviconGenerator</dc:creator><dc:source>https://realfavicongenerator.net</dc:source></rdf:Description></rdf:RDF></metadata><defs id="defs1"></defs><sodipodi:namedview id="namedview1" pagecolor="#505050" bordercolor="#eeeeee" borderopacity="1" inkscape:showpageshadow="0" inkscape:pageopacity="0" inkscape:pagecheckerboard="0" inkscape:deskcolor="#505050" inkscape:zoom="33.75" inkscape:cx="12" inkscape:cy="12" inkscape:window-width="1025" inkscape:window-height="991" inkscape:window-x="26" inkscape:window-y="23" inkscape:window-maximized="0" inkscape:current-layer="svg1"></sodipodi:namedview><path d="M4 6V20H18V22H3C2.4 22 2 21.6 2 21V6H4M8 2H20C21.11 2 22 2.9 22 4V16C22 17.11 21.11 18 20 18H8C6.9 18 6 17.11 6 16V4C6 2.9 6.9 2 8 2M16.3 13.3L15.9 10.7L17.8 8.8L15.2 8.4L14 6L12.8 8.4L10.2 8.8L12.1 10.6L11.6 13.2L14 12L16.3 13.3Z" id="path1" style="fill:#6750a4;fill-opacity:1"></path><style>@media (prefers-color-scheme: light) { :root { filter: none; } }
@media (prefers-color-scheme: dark) { :root { filter: contrast(0.7407407407407407) brightness(2); } }
</style></svg>